<svg width="46" height="45" viewBox="0 0 46 45" fill="none" xmlns="http://www.w3.org/2000/svg">
<circle cx="23.481" cy="22.5" r="22.5" fill="#DFDFE0"/>
<path d="M15.101 29H18.709C18.8156 29 19.013 28.9973 19.301 28.992C19.5943 28.9867 19.8743 28.9653 20.141 28.928C21.0423 28.8107 21.7996 28.488 22.413 27.96C23.0316 27.4267 23.4983 26.752 23.813 25.936C24.1276 25.1147 24.285 24.216 24.285 23.24C24.285 22.2587 24.1276 21.36 23.813 20.544C23.4983 19.7227 23.0316 19.048 22.413 18.52C21.7996 17.9867 21.0423 17.664 20.141 17.552C19.8743 17.5147 19.5943 17.4933 19.301 17.488C19.013 17.4827 18.8156 17.48 18.709 17.48H15.101V29ZM16.813 27.408V19.072H18.709C18.885 19.072 19.0983 19.0773 19.349 19.088C19.605 19.0933 19.829 19.1147 20.021 19.152C20.597 19.2587 21.0663 19.5093 21.429 19.904C21.797 20.2933 22.069 20.7787 22.245 21.36C22.421 21.936 22.509 22.5627 22.509 23.24C22.509 23.896 22.4236 24.5147 22.253 25.096C22.0823 25.6773 21.813 26.168 21.445 26.568C21.0823 26.9627 20.6076 27.216 20.021 27.328C19.829 27.3653 19.6076 27.3893 19.357 27.4C19.1116 27.4053 18.8956 27.408 18.709 27.408H16.813ZM26.1538 29H33.0418V27.424H27.8258V17.48H26.1538V29Z" fill="#6F6E73"/>
</svg>
